# xmcd CD database file
#
# Track frame offsets:
#	150
#	18383
#	34209
#	58960
#	90415
#	122353
#	156721
#	172859
#	209170
#	273357
#	302493
#	327829
#
# Disc length: 4643 seconds
#
# Revision: 0
# Processed by: cddbd v1.5.2PL0 Copyright (c) Steve Scherf et al.
# Submitted via: CDex 1.70beta2
#
DISCID=a312210c
DTITLE=Diverse - CUE 163
DYEAR=2008
DGENRE=New Age
TTITLE0=Ian Tescee - Earthrise
TTITLE1=Guido Negraszus - Let's Travel Far Away
TTITLE2=Erez Yaary - Solar Voyage 1
TTITLE3=Ian Boddy - Slide
TTITLE4=Jonson - Reason Of Senses
TTITLE5=Alpha Wave Movement - Surrender and Flow
TTITLE6=Ian Tescee - The Volcanoes
TTITLE7=Rudy Adrian - Desert Realms
TTITLE8=Walter Roos - 210308 (Sequ.-liebe)
TTITLE9=Art Of Infinity - Age Of Changes
TTITLE10=Krystian Shek - Nuh in the Ark
TTITLE11=Ian Tescee - Eternal Dreamer
EXTD=YEAR: 2008
EXTT0=
EXTT1=
EXTT2=
EXTT3=
EXTT4=
EXTT5=
EXTT6=
EXTT7=
EXTT8=
EXTT9=
EXTT10=
EXTT11=
PLAYORDER=
